<?xml version="1.0" standalone="no"?>
<!DOCTYPE svg PUBLIC "-//W3C//DTD SVG 20010904//EN"
 "http://www.w3.org/TR/2001/REC-SVG-20010904/DTD/svg10.dtd">
<svg version="1.0" xmlns="http://www.w3.org/2000/svg"
 width="600.000000pt" height="440.000000pt" viewBox="0 0 600.000000 440.000000"
 preserveAspectRatio="xMidYMid meet">
<g transform="translate(0.000000,440.000000) scale(0.100000,-0.100000)"
fill="#000000" stroke="none">
<path d="M1766 3815 c-129 -57 -153 -92 -132 -185 7 -30 11 -61 9 -67 -8 -22
-41 -14 -75 16 -30 26 -31 30 -16 45 21 20 32 21 24 0 -8 -21 11 -54 28 -48
30 11 25 54 -12 95 -6 8 -21 25 -31 39 -16 21 -23 23 -38 14 -14 -9 -18 -24
-18 -62 l1 -50 -62 -7 c-69 -7 -99 3 -109 35 -12 38 -42 44 -93 18 -37 -18
-48 -29 -50 -51 -4 -34 40 -113 68 -122 11 -4 55 -3 98 0 85 8 110 0 170 -50
l31 -26 -31 -44 c-25 -36 -29 -49 -24 -78 4 -19 15 -46 26 -60 l20 -25 -30
-22 c-17 -12 -34 -20 -37 -16 -3 3 -8 37 -11 76 -5 68 -4 72 28 112 39 48 32
73 -18 73 -17 0 -37 6 -43 13 -7 6 -19 12 -25 12 -20 0 -54 -50 -54 -80 0 -28
22 -46 42 -34 6 4 8 -2 3 -17 -14 -45 -36 -79 -50 -79 -8 0 -25 -12 -38 -26
-18 -19 -30 -24 -46 -19 -28 9 -27 21 4 29 37 9 59 49 52 93 -5 27 -1 43 14
65 22 30 22 69 2 75 -7 3 -28 -12 -47 -33 l-34 -37 -16 50 c-34 102 -101 124
-176 57 -21 -19 -42 -44 -45 -55 -8 -24 11 -49 36 -49 22 0 23 -8 4 -34 -12
-16 -12 -22 0 -46 20 -38 62 -70 94 -70 25 -1 25 -1 7 -15 -35 -26 -53 -17
-98 47 -51 74 -118 128 -158 128 -15 0 -44 -7 -63 -15 -64 -26 -75 -21 -168
76 l-88 92 -58 -6 c-32 -3 -89 -16 -128 -29 l-70 -23 -3 -51 c-3 -49 -5 -52
-33 -58 -17 -3 -44 -19 -60 -36 -25 -24 -28 -33 -19 -50 6 -11 23 -26 38 -34
29 -15 26 -18 -31 -31 -76 -16 -100 -100 -51 -174 32 -50 24 -69 -48 -108 -29
-15 -54 -36 -56 -47 -3 -16 1 -17 40 -11 84 14 158 60 203 129 13 19 21 24 28
17 17 -17 77 -14 77 4 0 23 16 18 34 -10 9 -14 34 -36 55 -49 45 -29 49 -39
91 -219 39 -169 40 -229 6 -320 -14 -37 -26 -78 -26 -91 0 -13 16 -55 35 -92
19 -38 54 -115 76 -171 40 -101 64 -133 101 -133 24 0 23 19 -6 61 -21 30 -56
103 -56 115 0 2 4 4 8 4 5 0 14 -17 20 -37 6 -21 30 -60 52 -87 26 -31 42 -63
47 -88 9 -58 38 -85 113 -107 36 -10 83 -28 105 -40 22 -11 48 -21 58 -21 10
0 33 -15 50 -32 50 -51 79 -68 119 -68 35 0 38 -2 44 -36 5 -28 0 -47 -25 -95
-17 -32 -31 -73 -31 -90 0 -64 83 -185 174 -254 l26 -20 1 -320 c0 -176 -2
-331 -6 -345 -5 -18 1 -36 22 -67 44 -65 79 -87 137 -88 45 0 51 3 54 21 2 14
-6 29 -22 42 -29 22 -32 40 -14 88 10 28 9 36 -5 52 -23 25 -22 35 10 72 22
27 25 35 15 51 -10 16 -5 22 43 51 47 28 55 37 55 63 0 24 8 35 42 55 50 31
95 98 104 157 7 47 18 57 76 68 52 10 65 30 72 115 6 60 13 85 37 119 37 56
37 82 -3 127 -40 45 -99 73 -155 74 -46 0 -73 25 -73 68 0 32 -40 69 -91 82
-24 6 -65 25 -92 42 -38 25 -54 29 -82 24 -23 -5 -45 -2 -64 9 -42 21 -60 19
-136 -16 l-66 -31 -37 29 c-21 17 -38 41 -40 54 -7 61 -12 69 -42 69 -37 0
-42 10 -29 49 8 24 8 35 -1 46 -19 23 -39 18 -70 -15 -34 -37 -52 -38 -79 -4
-23 29 -29 101 -11 133 22 42 155 66 214 40 15 -7 30 -26 36 -45 13 -39 22
-46 44 -38 12 5 16 21 16 70 l0 64 44 31 c32 23 50 46 69 90 21 49 32 62 62
75 20 8 40 25 45 39 12 32 39 45 92 45 67 0 88 9 88 36 0 18 -8 25 -32 32 -19
5 -32 15 -30 22 2 7 -4 20 -13 30 -15 16 -14 18 7 24 13 3 40 6 60 6 36 0 37
-1 32 -28 -5 -24 0 -34 26 -55 35 -30 43 -32 71 -17 29 16 24 57 -10 89 -27
25 -28 29 -14 44 22 21 11 53 -37 111 -33 40 -40 56 -40 91 0 68 -46 85 -65
24 -10 -31 -22 -22 -28 23 -10 72 -81 113 -120 70 -25 -28 -47 -88 -47 -129 0
-27 -8 -45 -27 -65 -19 -19 -27 -39 -27 -62 0 -44 -12 -37 -26 14 -8 28 -24
50 -58 76 -60 48 -92 84 -92 106 0 35 26 71 80 110 54 39 55 39 69 19 16 -25
57 -27 89 -5 26 18 29 49 5 62 -14 8 -11 14 20 42 32 28 37 38 37 75 l0 42 32
-6 c41 -8 56 -50 24 -66 -27 -13 -32 -41 -10 -49 22 -8 33 2 14 14 -8 5 -11
12 -7 16 4 4 15 0 24 -9 16 -15 15 -18 -2 -37 -10 -11 -27 -20 -38 -20 -26 0
-49 -31 -35 -47 6 -7 18 -13 27 -13 10 0 31 -20 49 -45 47 -67 97 -73 127 -15
15 29 15 34 1 55 -21 32 -20 33 8 28 32 -6 66 13 66 37 0 11 -13 34 -29 53
-21 23 -27 37 -20 48 16 26 9 50 -25 91 -19 21 -37 54 -40 73 -8 41 -19 50
-79 65 -63 16 -74 35 -15 26 56 -8 78 0 78 29 0 23 -12 30 -85 49 -25 6 35 0
91 -9 41 -7 42 -7 53 27 8 23 21 37 41 45 28 11 30 10 37 -15 3 -15 7 -44 7
-67 1 -39 2 -40 41 -46 55 -7 80 -23 95 -59 11 -26 10 -37 -6 -78 -10 -26 -19
-60 -20 -77 -1 -16 -7 -66 -14 -109 -6 -43 -9 -100 -5 -125 8 -55 46 -125 80
-147 19 -12 25 -25 25 -51 0 -27 4 -34 18 -31 20 4 28 43 12 63 -27 32 58 160
124 186 17 7 45 25 63 40 17 15 46 30 65 34 88 19 123 64 112 144 -6 46 -5 49
29 75 34 26 35 29 39 109 5 92 20 130 80 195 33 36 37 45 28 63 -16 29 -36 34
-80 19 -21 -7 -47 -9 -57 -5 -15 6 -13 9 15 23 41 20 41 42 -2 80 -68 59 -172
68 -224 19 -41 -38 -66 -47 -126 -47 -52 0 -56 2 -56 23 0 53 -96 97 -210 97
-41 0 -76 -10 -134 -35z m238 1 c84 -26 116 -78 56 -91 -17 -4 -50 -22 -74
-40 -23 -18 -60 -38 -80 -45 -28 -9 -42 -21 -52 -45 -8 -20 -25 -37 -44 -45
-22 -9 -33 -22 -37 -41 -6 -33 -7 -33 -85 -17 -44 9 -61 9 -70 0 -18 -18 8
-40 50 -44 24 -2 38 -8 40 -19 4 -19 -39 -34 -49 -17 -4 6 -20 8 -38 5 -27 -6
-40 0 -92 41 l-62 47 -102 0 c-115 0 -128 6 -147 67 -13 45 -5 58 49 76 30 10
34 9 49 -18 25 -42 56 -52 136 -44 67 6 70 6 108 -25 67 -54 126 -30 101 41
-6 17 -11 49 -11 71 0 52 39 89 135 127 80 33 147 37 219 16z m437 -37 c40
-13 98 -64 85 -76 -4 -5 -35 -10 -69 -13 -64 -5 -95 -30 -38 -30 17 0 46 -8
65 -17 30 -14 41 -15 76 -4 71 21 78 0 21 -66 -37 -41 -71 -115 -71 -153 0
-11 -8 -16 -22 -16 -18 1 -23 -5 -23 -24 0 -18 6 -26 23 -28 33 -5 27 -36 -13
-66 -35 -27 -35 -28 -33 -93 3 -58 0 -67 -21 -84 -13 -10 -48 -26 -77 -35 -30
-8 -60 -24 -67 -34 -7 -11 -33 -28 -58 -38 -55 -24 -114 -88 -130 -141 -10
-35 -14 -39 -31 -30 -28 15 -56 67 -69 127 -8 43 -7 72 5 148 9 52 15 98 12
102 -3 5 4 27 15 51 23 52 23 64 3 106 -17 36 -65 65 -107 65 -32 0 -41 14
-26 41 8 16 8 28 0 46 -16 36 1 53 53 53 46 0 66 13 66 45 0 12 18 36 44 58
42 35 49 37 115 37 63 0 73 3 113 34 66 50 90 55 159 35z m-893 -136 l-23 -25
-3 32 c-2 18 -1 39 3 48 6 15 9 14 26 -7 20 -24 20 -24 -3 -48z m522 63 c0 -2
-18 -15 -39 -29 -28 -19 -41 -35 -43 -54 -3 -25 -8 -29 -48 -33 -25 -3 -51 -9
-57 -13 -8 -5 -13 -3 -13 6 0 19 17 32 62 46 20 7 42 19 50 28 21 26 88 64 88
49z m-460 -85 c0 -11 -4 -23 -10 -26 -6 -4 -10 5 -10 19 0 14 5 26 10 26 6 0
10 -9 10 -19z m-940 -181 c95 -99 111 -106 190 -74 23 9 51 13 65 10 36 -9 91
-61 136 -128 44 -64 67 -72 119 -41 28 16 30 16 56 -10 31 -31 67 -35 86 -9 7
10 26 25 43 33 23 11 35 29 56 87 31 83 44 102 70 102 27 0 24 -17 -11 -57
-26 -29 -30 -41 -29 -91 2 -86 11 -117 35 -120 11 -2 28 6 39 18 25 28 35 25
35 -9 0 -21 -10 -38 -35 -60 -39 -34 -42 -43 -20 -61 24 -20 17 -38 -17 -45
-26 -6 -34 -3 -48 16 l-18 22 -44 -26 c-60 -35 -118 -100 -118 -133 0 -37 25
-74 82 -118 35 -27 56 -55 73 -92 17 -39 29 -54 44 -54 17 0 19 5 14 33 -4 28
0 40 27 70 24 28 32 46 31 74 -1 49 37 133 60 133 34 0 61 -34 66 -83 4 -33
10 -47 21 -47 20 0 52 29 52 47 0 7 5 13 10 13 6 0 10 -21 10 -48 0 -49 16
-83 57 -115 28 -22 37 -51 24 -76 -9 -16 -24 -19 -90 -22 -90 -5 -111 -16 -94
-51 6 -13 14 -31 17 -41 3 -9 19 -20 36 -24 51 -10 28 -28 -42 -33 -67 -5
-108 -27 -108 -57 0 -8 -16 -21 -35 -29 -37 -15 -60 -43 -70 -86 -7 -28 -32
-57 -84 -96 -29 -22 -31 -28 -31 -88 0 -66 -12 -79 -23 -26 -16 81 -230 85
-281 7 -24 -37 -21 -115 7 -156 31 -46 66 -49 106 -10 35 34 57 41 46 14 -18
-48 -17 -71 3 -82 12 -6 30 -11 41 -11 17 0 21 -6 21 -36 0 -27 7 -43 31 -65
25 -24 28 -29 13 -29 -27 1 -58 21 -88 57 -17 20 -43 37 -69 44 -23 6 -51 17
-63 24 -12 7 -53 23 -93 35 -78 24 -94 40 -105 101 -4 21 -24 56 -49 86 -24
28 -51 71 -61 97 -19 50 -30 56 -46 27 -8 -16 -2 -35 29 -95 22 -42 35 -76 31
-76 -18 0 -50 53 -71 118 -12 37 -40 103 -63 146 -48 93 -51 128 -17 206 35
80 32 152 -14 343 -33 139 -41 162 -68 185 -16 15 -47 45 -69 66 -71 70 -127
64 -186 -17 -35 -50 -76 -79 -142 -102 -60 -21 -61 -12 -3 17 26 14 55 36 63
50 15 28 14 32 -29 106 -16 27 -17 39 -9 63 12 34 43 59 75 59 27 0 54 26 46
45 -3 9 -16 18 -29 21 -53 13 -7 73 68 89 25 6 27 10 21 33 -16 62 -13 65 72
94 44 15 98 28 119 28 37 0 46 -6 126 -90z m546 11 c12 -29 29 -60 38 -69 16
-16 20 -15 50 22 19 22 36 34 40 28 3 -6 -6 -24 -20 -41 -22 -27 -25 -37 -19
-72 5 -31 3 -45 -11 -60 -20 -22 -36 -23 -101 -8 -76 18 -91 26 -107 58 -14
25 -14 30 -1 41 26 21 18 50 -15 57 -16 3 -30 9 -30 13 0 17 55 73 84 85 45
19 68 5 92 -54z m214 -51 c0 -19 -25 -50 -41 -50 -15 0 -10 42 7 61 19 21 34
16 34 -11z m166 -20 c6 -6 34 -18 64 -28 49 -15 56 -21 65 -54 5 -20 25 -55
43 -77 31 -38 33 -45 23 -73 -6 -17 -11 -32 -11 -34 0 -2 14 -16 31 -32 42
-39 34 -62 -21 -62 -45 0 -53 -19 -24 -51 15 -17 15 -20 0 -44 -9 -14 -23 -25
-30 -25 -22 0 -62 37 -76 70 -9 21 -19 30 -36 30 -34 0 -30 16 6 23 38 8 65
48 51 76 -6 11 -11 35 -11 54 0 44 -22 62 -71 61 -36 -1 -40 2 -59 42 -24 48
-20 75 13 112 23 25 29 26 43 12z m904 0 c0 -5 -4 -10 -10 -10 -5 0 -10 5 -10
10 0 6 5 10 10 10 6 0 10 -4 10 -10z m-2090 -319 c0 -12 -29 -23 -41 -15 -5 3
-7 10 -4 15 8 12 45 12 45 0z m1690 -301 c0 -5 -4 -10 -10 -10 -5 0 -10 5 -10
10 0 6 5 10 10 10 6 0 10 -4 10 -10z m-241 -234 c15 -17 11 -48 -5 -53 -7 -2
-24 7 -39 20 -24 20 -26 26 -16 45 13 24 34 19 60 -12z m-312 -821 c21 -9 49
-13 64 -10 19 4 44 -4 90 -29 35 -19 79 -37 97 -41 36 -7 56 -33 67 -82 8 -41
39 -63 87 -63 20 0 49 -5 65 -11 34 -13 103 -78 103 -97 0 -8 -14 -39 -31 -69
-24 -41 -33 -71 -37 -121 -2 -37 -9 -72 -14 -79 -5 -6 -26 -14 -48 -18 -56 -9
-69 -23 -86 -90 -18 -69 -52 -118 -97 -141 -39 -20 -47 -31 -47 -66 0 -21 -7
-29 -33 -37 -19 -7 -46 -24 -61 -40 -25 -26 -26 -30 -11 -39 16 -8 15 -12 -9
-48 -30 -45 -32 -61 -10 -85 12 -13 13 -22 5 -38 -19 -34 -13 -73 16 -103 22
-23 25 -31 14 -37 -32 -20 -106 21 -145 80 -23 33 -25 45 -18 72 5 18 8 170 6
338 -2 167 -4 309 -4 316 0 7 -25 31 -56 54 -61 45 -130 142 -140 198 -5 26 0
48 26 101 26 54 31 74 26 106 l-6 39 57 27 c69 31 82 33 130 13z"/>
<path d="M2525 3579 c-4 -6 -5 -12 -2 -15 2 -3 7 2 10 11 7 17 1 20 -8 4z"/>
<path d="M2046 3428 c3 -5 10 -6 15 -3 13 9 11 12 -6 12 -8 0 -12 -4 -9 -9z"/>
<path d="M2277 3109 c7 -7 15 -10 18 -7 3 3 -2 9 -12 12 -14 6 -15 5 -6 -5z"/>
<path d="M297 3319 c7 -7 15 -10 18 -7 3 3 -2 9 -12 12 -14 6 -15 5 -6 -5z"/>
<path d="M1290 3021 c0 -6 4 -13 10 -16 6 -3 7 1 4 9 -7 18 -14 21 -14 7z"/>
<path d="M1246 2948 c3 -5 10 -6 15 -3 13 9 11 12 -6 12 -8 0 -12 -4 -9 -9z"/>
<path d="M1620 2766 c0 -2 8 -10 18 -17 15 -13 16 -12 3 4 -13 16 -21 21 -21
13z"/>
<path d="M1350 2226 c0 -2 7 -7 16 -10 8 -3 12 -2 9 4 -6 10 -25 14 -25 6z"/>
<path d="M2029 1313 c-13 -16 -12 -17 4 -4 9 7 17 15 17 17 0 8 -8 3 -21 -13z"/>
<path d="M3804 3755 c-7 -29 10 -76 37 -100 18 -17 52 -17 92 0 13 5 17 2 17
-14 0 -27 26 -38 51 -23 27 17 29 16 29 -28 0 -37 -4 -43 -47 -73 -27 -17 -65
-49 -86 -71 -34 -34 -38 -43 -35 -79 3 -38 1 -41 -44 -66 l-47 -26 -16 23
c-23 32 -43 27 -54 -15 -16 -56 -14 -76 14 -117 13 -20 23 -36 22 -36 -1 0
-26 9 -55 20 -29 11 -63 20 -77 20 -37 0 -68 53 -61 104 4 31 15 50 55 89 51
50 63 81 39 105 -22 22 -45 13 -88 -34 -53 -57 -83 -125 -84 -187 -1 -40 3
-52 23 -68 13 -10 35 -19 50 -19 14 0 42 -10 61 -22 l35 -21 -67 -12 c-94 -15
-115 -33 -217 -180 l-33 -49 -19 39 c-11 21 -19 41 -19 45 0 4 16 11 37 16 40
10 60 33 50 57 -7 18 -140 88 -204 107 -84 26 -167 -30 -229 -152 -14 -29 -46
-79 -70 -111 -45 -60 -54 -99 -34 -136 14 -27 38 -33 70 -16 39 20 42 19 62
-15 20 -36 56 -40 84 -9 15 16 18 34 16 92 -2 61 1 76 23 109 37 55 45 47 21
-23 l-21 -60 25 -22 26 -22 -21 -32 c-11 -18 -29 -47 -40 -65 -16 -26 -28 -34
-57 -36 -30 -3 -39 2 -58 27 -28 40 -55 40 -69 1 -5 -17 -18 -33 -28 -37 -10
-3 -28 -15 -39 -25 -21 -19 -21 -19 -64 56 -24 41 -50 78 -58 81 -23 9 -42
-14 -42 -52 0 -21 -5 -33 -12 -32 -29 3 -39 -3 -58 -33 -25 -41 -25 -65 -1
-73 23 -7 71 14 71 31 0 10 -7 9 -29 -4 -16 -9 -33 -13 -37 -9 -11 11 21 61
42 65 24 5 34 -16 34 -71 0 -45 2 -48 29 -53 26 -6 28 -9 18 -25 -9 -14 -8
-26 1 -52 20 -54 17 -60 -26 -54 -94 12 -138 -82 -73 -156 28 -32 29 -34 11
-45 -11 -6 -27 -26 -36 -44 -9 -18 -39 -57 -66 -85 -27 -29 -56 -70 -64 -90
-21 -48 -23 -145 -5 -206 18 -62 89 -143 140 -158 42 -13 125 -8 189 11 39 12
45 11 66 -9 13 -12 35 -21 55 -21 l32 0 -6 -54 c-6 -49 -4 -59 26 -113 l33
-60 -14 -58 c-17 -69 -8 -108 65 -308 54 -145 62 -153 142 -137 98 18 135 44
159 108 10 26 28 60 41 75 15 19 23 42 23 67 0 34 6 44 49 82 61 53 72 81 65
157 -4 33 -4 71 0 86 4 15 45 67 92 116 133 139 145 198 37 184 -68 -8 -95 10
-158 104 -44 68 -100 180 -92 187 11 11 102 -105 128 -164 17 -37 34 -74 39
-82 21 -40 157 9 236 85 35 33 44 49 44 75 0 18 -7 42 -17 52 -15 17 -14 18
33 12 85 -10 119 -23 149 -54 16 -16 36 -30 45 -30 10 0 19 -16 27 -47 6 -27
22 -74 37 -106 22 -50 32 -61 70 -78 25 -11 48 -28 51 -40 5 -13 14 -19 28
-17 30 4 32 24 3 49 -21 18 -26 32 -26 66 0 24 7 57 14 72 29 55 129 127 161
115 9 -4 25 -24 36 -46 11 -22 35 -48 54 -59 37 -22 39 -26 54 -113 6 -33 20
-74 31 -93 21 -37 13 -44 -15 -13 -21 23 -48 26 -63 7 -11 -13 17 -48 163
-201 55 -58 65 -64 115 -71 30 -4 66 -10 80 -12 14 -2 57 -6 95 -9 60 -4 74
-2 95 15 16 13 22 23 15 29 -5 6 -68 12 -140 15 -157 5 -235 26 -234 60 2 72
-11 180 -23 195 -8 9 -31 36 -51 60 -20 23 -37 47 -37 52 0 22 26 8 48 -25 28
-44 70 -48 107 -10 37 36 34 83 -10 135 -39 46 -40 51 -23 68 19 19 38 14 35
-10 -1 -15 4 -23 17 -26 22 -5 38 16 32 43 -3 15 10 29 57 60 45 29 68 52 85
85 27 55 23 89 -21 144 l-30 39 27 22 c43 34 32 59 -27 63 -52 3 -57 10 -28
36 18 17 22 17 43 2 12 -9 30 -16 39 -16 11 0 24 -19 39 -54 24 -60 47 -77 67
-50 18 25 16 41 -8 75 -16 23 -19 36 -13 57 5 15 8 38 9 51 0 19 8 27 41 38
25 8 46 24 55 39 14 27 17 124 4 163 -3 12 -3 21 2 21 4 0 20 -29 36 -65 21
-51 26 -73 21 -105 -5 -29 -2 -52 11 -80 27 -60 12 -99 -48 -127 -67 -32 -101
-94 -81 -147 9 -23 44 -20 44 3 0 24 10 31 70 52 79 28 113 109 71 172 l-19
29 35 51 c19 29 43 60 54 70 22 20 24 33 7 43 -7 4 -23 -6 -39 -25 -21 -26
-32 -31 -49 -26 -21 7 -22 11 -16 74 6 61 4 70 -23 121 -17 31 -41 66 -54 78
-22 21 -26 21 -39 8 -11 -11 -18 -12 -26 -4 -6 6 -26 11 -44 10 -44 -1 -58 13
-51 51 8 44 39 103 57 110 9 4 39 9 68 13 60 8 108 46 108 86 0 13 4 30 10 38
7 12 11 12 28 -3 17 -16 21 -16 32 -2 23 28 26 6 14 -87 -15 -108 -9 -142 37
-211 17 -26 29 -54 26 -61 -3 -8 0 -19 7 -25 17 -14 39 9 31 32 -4 8 1 48 9
89 16 79 12 117 -18 160 -19 27 -21 91 -3 106 6 5 23 12 37 14 19 2 31 16 51
56 14 29 31 58 37 64 19 19 14 38 -18 75 -47 53 -36 113 20 113 29 0 30 2 30
43 0 55 -27 87 -75 87 -18 0 -69 7 -112 15 -100 19 -143 19 -172 -1 -18 -13
-22 -23 -17 -45 l6 -29 -30 15 c-26 14 -33 14 -58 1 -25 -13 -30 -12 -52 5
-30 22 -79 25 -106 4 -26 -20 -47 -19 -89 6 -24 14 -60 23 -106 27 -38 2 -69
8 -69 13 0 18 -33 39 -61 39 l-31 0 24 30 c19 25 28 29 54 25 20 -4 35 0 43 9
20 24 3 37 -47 35 -26 -1 -65 2 -87 6 -32 6 -45 3 -64 -12 -21 -17 -22 -22
-11 -44 18 -35 91 -99 120 -105 47 -10 50 -13 50 -46 0 -28 -7 -37 -44 -60
-54 -35 -62 -35 -80 0 -26 50 -91 66 -136 35 -24 -17 -55 -18 -132 -7 -34 5
-39 10 -48 44 -13 47 -42 70 -91 70 -26 0 -47 9 -75 31 -77 62 -217 149 -240
149 -17 0 -25 -7 -30 -25z m103 -32 c102 -63 110 -71 93 -82 -21 -15 -24 -14
-35 12 -10 22 -24 24 -77 11 -23 -5 -30 -1 -47 27 -24 39 -27 69 -8 69 7 0 41
-17 74 -37z m721 -27 c3 -4 -8 -21 -25 -38 -27 -27 -34 -30 -48 -18 -28 23
-39 51 -24 62 14 9 86 5 97 -6z m77 4 c3 -5 -3 -10 -15 -10 -12 0 -18 5 -15
10 3 6 10 10 15 10 5 0 12 -4 15 -10z m-631 -95 c18 -18 36 -25 63 -25 47 0
83 -23 83 -54 0 -43 20 -55 105 -64 72 -8 83 -7 106 11 38 27 82 16 109 -29
25 -39 37 -41 88 -14 68 36 75 45 69 86 l-6 37 70 -6 c47 -4 79 -13 98 -26 34
-24 66 -26 101 -6 35 20 57 18 92 -6 28 -20 32 -21 61 -7 29 14 36 14 65 -1
28 -13 34 -13 42 -1 5 8 4 22 -2 34 -8 15 -7 22 8 33 23 17 38 17 164 -3 154
-23 154 -23 158 -64 3 -33 0 -36 -30 -45 -58 -17 -63 -83 -12 -144 l26 -31
-21 -25 c-11 -14 -22 -39 -26 -55 -7 -33 -19 -45 -58 -54 -20 -5 -33 -17 -44
-43 -14 -35 -14 -40 7 -83 35 -70 40 -99 29 -149 -16 -76 -18 -78 -43 -40 -38
56 -48 98 -36 158 14 77 13 166 -3 180 -16 13 -27 5 -27 -21 0 -23 -8 -23 -33
-1 -18 17 -20 17 -38 -6 -10 -13 -19 -34 -19 -48 0 -39 -39 -69 -100 -76 -67
-8 -100 -38 -125 -112 -17 -50 -18 -55 -2 -79 14 -21 25 -26 57 -26 53 0 64
-20 79 -140 15 -123 6 -155 -51 -172 -39 -12 -64 -40 -52 -59 3 -6 0 -24 -7
-41 -11 -27 -10 -35 12 -74 17 -32 20 -47 12 -55 -8 -8 -18 5 -38 50 -16 34
-34 61 -42 61 -8 0 -28 8 -44 17 -27 16 -30 16 -56 -4 -17 -12 -28 -30 -28
-44 0 -22 5 -24 48 -27 53 -3 58 -12 22 -36 -33 -22 -32 -41 6 -84 28 -32 31
-40 27 -84 -4 -33 -13 -57 -29 -74 -34 -36 -132 -94 -160 -94 -27 0 -59 -27
-59 -51 0 -9 16 -36 35 -59 38 -46 43 -74 19 -108 -23 -34 -60 -28 -86 13 -23
35 -45 44 -65 24 -7 -7 -12 -1 -16 20 -5 21 -19 38 -47 56 -23 15 -46 39 -54
60 -31 74 -88 69 -176 -15 -57 -55 -70 -82 -70 -146 0 -24 -2 -44 -4 -44 -47
0 -93 69 -122 184 -14 56 -19 66 -35 61 -12 -4 -31 6 -59 31 -37 33 -47 37
-123 45 -88 9 -150 27 -202 59 -48 30 -56 26 -39 -17 23 -56 48 -73 108 -73
57 0 76 -12 76 -47 0 -48 -119 -139 -206 -157 -37 -8 -45 1 -63 64 -15 51 -43
93 -110 163 -84 87 -95 48 -26 -91 47 -93 118 -183 164 -207 21 -10 36 -11 69
-2 23 6 44 8 47 5 13 -13 -37 -87 -105 -153 -94 -92 -100 -105 -100 -216 l0
-92 -55 -52 c-47 -43 -55 -56 -55 -87 0 -24 -8 -46 -24 -65 -13 -15 -29 -46
-36 -68 -7 -22 -18 -46 -24 -54 -29 -37 -174 -74 -193 -49 -5 7 -34 81 -64
163 -55 154 -61 192 -44 282 6 36 3 50 -21 95 -23 43 -29 65 -29 118 l0 65
-35 5 c-19 3 -48 14 -64 24 -25 18 -32 18 -75 6 -113 -32 -174 -25 -233 28
-57 52 -78 101 -78 190 0 92 16 131 85 203 30 32 55 62 55 67 0 6 11 24 25 41
20 23 37 31 73 36 26 4 67 13 91 21 61 19 125 18 142 -3 8 -9 18 -30 24 -47
12 -36 75 -76 120 -76 23 0 34 7 47 30 19 34 39 37 91 15 70 -29 174 -12 191
30 12 32 6 55 -18 70 -21 14 -32 14 -85 4 -33 -7 -63 -10 -67 -7 -3 4 -3 24 1
46 6 38 8 40 51 47 25 3 74 3 109 0 63 -7 65 -7 77 20 11 25 10 29 -10 43 -13
8 -29 30 -37 49 -8 18 -21 36 -30 39 -20 8 -45 -13 -45 -37 0 -23 -13 -24 -30
-4 -23 28 -50 18 -70 -27 -11 -24 -20 -50 -20 -59 0 -11 -12 -19 -35 -23 -41
-8 -61 -36 -45 -66 9 -16 8 -20 -5 -20 -9 0 -29 29 -49 73 -37 75 -86 122
-123 115 -37 -7 -27 -44 22 -79 33 -24 45 -39 43 -54 -5 -34 -28 -22 -66 35
-58 87 -88 82 -200 -30 -87 -86 -115 -97 -152 -60 -23 23 -27 77 -7 104 10 13
28 19 68 20 49 1 54 3 57 24 2 13 -2 37 -8 53 -12 27 -10 32 39 85 28 30 51
59 51 63 0 4 16 15 36 24 22 11 39 28 46 48 l10 30 16 -23 c23 -36 43 -48 78
-48 40 0 79 31 94 75 13 40 58 81 98 90 45 9 147 99 185 162 60 98 102 129
191 139 65 8 75 17 49 46 -13 16 -14 20 -3 16 8 -3 39 -13 68 -23 40 -15 55
-16 64 -7 9 9 6 18 -14 39 -33 37 -39 57 -31 105 l6 41 19 -22 c22 -28 52 -23
111 15 34 23 37 28 31 58 -8 45 13 76 93 132 64 47 80 72 71 119 -6 31 -5 31
26 0z m596 -20 c16 -20 -3 -20 -45 0 l-30 13 31 1 c17 1 37 -6 44 -14z m-1042
-148 c2 -10 -14 -33 -38 -55 -69 -62 -86 -113 -55 -172 14 -27 14 -30 0 -30
-8 0 -24 9 -36 21 -17 17 -20 29 -15 61 9 53 48 128 87 167 33 33 52 36 57 8z
m-367 -363 c52 -26 89 -50 86 -57 -2 -6 -21 -17 -43 -23 -43 -12 -48 -31 -23
-91 16 -39 4 -57 -59 -84 -88 -38 -126 -17 -98 54 32 84 16 115 -34 65 -42
-41 -51 -68 -49 -144 2 -66 -10 -94 -40 -94 -9 0 -22 13 -28 30 -13 34 -25 36
-75 15 -40 -16 -58 -6 -58 33 0 28 15 59 45 92 13 14 42 59 65 100 46 84 71
114 115 142 41 26 86 18 196 -38z m1933 -338 c34 -57 47 -118 27 -130 -12 -8
-94 171 -87 191 8 21 15 13 60 -61z m213 12 c-3 -8 -6 -5 -6 6 -1 11 2 17 5
13 3 -3 4 -12 1 -19z m-2627 -163 c8 -22 6 -27 -20 -40 -16 -8 -38 -15 -50
-15 -17 0 -20 6 -20 48 -1 26 -5 66 -9 89 -14 71 7 72 51 3 21 -33 43 -71 48
-85z m2552 -37 c-7 -7 -12 -8 -12 -2 0 14 12 26 19 19 2 -3 -1 -11 -7 -17z
m-65 -28 c29 0 29 -5 -3 -48 -31 -40 -44 -31 -44 33 0 30 3 36 12 27 7 -7 22
-12 35 -12z m-1852 -94 c8 -19 25 -42 37 -50 12 -9 18 -19 14 -23 -4 -4 -52
-8 -107 -8 -79 0 -98 3 -94 13 3 8 5 19 5 26 0 7 6 21 14 31 13 18 14 18 45
-4 36 -26 51 -21 51 20 0 39 18 37 35 -5z m-395 -31 c31 -16 61 -60 80 -118
21 -66 95 -76 82 -11 -3 16 1 30 9 35 29 18 36 10 31 -41 l-5 -50 38 0 c21 0
55 5 76 11 43 13 69 1 69 -32 0 -49 -102 -65 -184 -28 -43 19 -49 19 -71 5
-13 -9 -26 -25 -30 -36 -14 -44 -108 -10 -131 47 -9 21 -23 46 -32 56 -21 23
-93 22 -167 -3 -32 -11 -59 -20 -60 -20 -2 0 33 36 76 80 56 58 85 80 103 80
25 0 33 -8 79 -80 25 -38 62 -47 80 -19 17 27 -1 65 -43 93 -22 14 -40 31 -40
36 0 13 6 13 40 -5z m2244 -21 c23 -60 -10 -115 -84 -139 -34 -11 -55 -25 -65
-43 -14 -26 -14 -26 -15 -4 0 41 28 79 85 111 50 29 59 40 58 79 -1 17 14 15
21 -4z m-1509 -356 l50 -18 -54 3 c-44 2 -56 6 -70 27 -15 23 -15 24 4 15 11
-4 43 -16 70 -27z m1031 -125 c-10 -10 -19 5 -10 18 6 11 8 11 12 0 2 -7 1
-15 -2 -18z m-144 -243 c40 -51 51 -79 39 -99 -15 -24 -91 96 -91 146 0 19 -1
19 52 -47z m-367 0 c3 -5 2 -10 -4 -10 -5 0 -13 5 -16 10 -3 6 -2 10 4 10 5 0
13 -4 16 -10z m398 -138 c15 -17 28 -92 16 -92 -3 0 -25 27 -48 60 -23 32 -55
69 -71 80 -17 12 -30 28 -30 36 0 11 19 2 59 -26 33 -23 66 -49 74 -58z m270
-159 c74 -4 115 -9 109 -15 -13 -13 -50 -12 -157 1 -100 13 -162 27 -169 40
-3 4 18 1 47 -7 29 -8 105 -17 170 -19z"/>
<path d="M4940 3460 c-9 -6 -10 -10 -3 -10 6 0 15 5 18 10 8 12 4 12 -15 0z"/>
<path d="M4620 3370 c-8 -5 -10 -10 -5 -10 6 0 17 5 25 10 8 5 11 10 5 10 -5
0 -17 -5 -25 -10z"/>
<path d="M5390 3190 c-9 -6 -10 -10 -3 -10 6 0 15 5 18 10 8 12 4 12 -15 0z"/>
<path d="M4990 3030 c-9 -6 -10 -10 -3 -10 6 0 15 5 18 10 8 12 4 12 -15 0z"/>
<path d="M3105 2391 c-3 -5 -2 -12 3 -15 5 -3 9 1 9 9 0 17 -3 19 -12 6z"/>
<path d="M2870 2186 c0 -2 8 -10 18 -17 15 -13 16 -12 3 4 -13 16 -21 21 -21
13z"/>
<path d="M4460 1980 c-9 -6 -10 -10 -3 -10 6 0 15 5 18 10 8 12 4 12 -15 0z"/>
<path d="M4246 1912 c-3 -5 1 -9 9 -9 8 0 12 4 9 9 -3 4 -7 8 -9 8 -2 0 -6 -4
-9 -8z"/>
<path d="M3525 1591 c-3 -5 -2 -12 3 -15 5 -3 9 1 9 9 0 17 -3 19 -12 6z"/>
<path d="M3216 3042 c-2 -4 -1 -14 4 -22 7 -11 9 -9 7 8 -1 24 -3 26 -11 14z"/>
<path d="M1377 3700 c-33 -34 -32 -64 1 -68 16 -2 25 3 31 21 5 14 21 27 35
31 31 8 33 21 7 36 -31 16 -44 12 -74 -20z m63 0 c0 -5 -9 -10 -20 -10 -11 0
-20 5 -20 10 0 6 9 10 20 10 11 0 20 -4 20 -10z m-45 -40 c-3 -5 -10 -10 -16
-10 -5 0 -9 5 -9 10 0 6 7 10 16 10 8 0 12 -4 9 -10z"/>
<path d="M3780 3626 c0 -2 8 -10 18 -17 15 -13 16 -12 3 4 -13 16 -21 21 -21
13z"/>
<path d="M2980 3573 c-14 -10 -38 -22 -55 -28 -16 -5 -36 -22 -44 -37 -15 -26
-14 -29 16 -60 17 -18 34 -43 38 -55 10 -34 43 -29 59 8 10 24 15 27 19 15 9
-22 47 -21 47 2 0 27 -29 62 -51 62 -10 0 -19 6 -19 13 0 9 10 12 30 9 55 -8
95 54 51 78 -29 15 -63 12 -91 -7z m79 -12 c26 -17 -7 -43 -48 -39 -39 3 -51
-14 -33 -49 4 -10 6 -31 3 -47 -7 -34 -31 -48 -31 -18 0 12 -14 32 -31 45 -27
21 -30 27 -20 45 6 11 26 25 45 32 19 6 40 18 46 26 14 16 48 18 69 5z m-19
-133 c0 -6 -7 -5 -15 2 -8 7 -15 17 -15 22 0 6 7 5 15 -2 8 -7 15 -17 15 -22z"/>
<path d="M696 3512 c-3 -5 1 -9 9 -9 8 0 12 4 9 9 -3 4 -7 8 -9 8 -2 0 -6 -4
-9 -8z"/>
<path d="M3196 3187 c3 -10 9 -15 12 -12 3 3 0 11 -7 18 -10 9 -11 8 -5 -6z"/>
<path d="M340 2980 c-9 -6 -10 -10 -3 -10 6 0 15 5 18 10 8 12 4 12 -15 0z"/>
<path d="M2413 2983 c-38 -15 19 -103 65 -103 50 1 106 67 81 96 -11 14 -117
19 -146 7z m132 -23 c9 -15 -41 -60 -68 -60 -27 0 -41 13 -51 48 -7 21 -5 22
53 22 33 0 63 -4 66 -10z"/>
<path d="M2180 2906 c0 -2 7 -7 16 -10 8 -3 12 -2 9 4 -6 10 -25 14 -25 6z"/>
<path d="M4936 2008 c-19 -26 -21 -74 -4 -84 18 -11 60 44 56 75 -4 33 -32 39
-52 9z m34 -10 c-1 -7 -7 -24 -15 -38 -14 -24 -14 -24 -15 -3 0 28 10 53 21
53 5 0 9 -6 9 -12z"/>
<path d="M1230 1950 c0 -17 7 -20 43 -20 31 0 49 -6 62 -20 10 -11 37 -25 59
-30 23 -6 53 -17 68 -25 42 -24 108 -17 108 11 0 20 -33 34 -83 34 -32 0 -49
6 -63 21 -28 32 -76 49 -139 49 -48 0 -55 -2 -55 -20z m139 -14 c30 -16 59
-46 44 -46 -6 0 -26 11 -46 24 -20 14 -53 27 -74 29 l-38 4 43 1 c24 1 55 -4
71 -12z m176 -66 c8 -12 -42 -12 -70 0 -16 7 -11 9 22 9 23 1 45 -3 48 -9z"/>
<path d="M4876 1928 c3 -5 10 -6 15 -3 13 9 11 12 -6 12 -8 0 -12 -4 -9 -9z"/>
<path d="M4954 1864 c-23 -33 -10 -72 33 -99 29 -19 31 -23 26 -66 -5 -38 -2
-50 16 -68 12 -12 34 -21 50 -21 51 0 49 49 -4 84 -22 14 -25 22 -20 50 6 28
3 35 -19 49 -16 11 -23 23 -20 32 4 8 3 26 0 40 -8 33 -41 33 -62 -1z m43 -29
c-5 -30 -2 -38 19 -51 13 -9 24 -21 24 -26 0 -14 -58 30 -71 53 -13 25 -3 59
18 59 12 0 14 -8 10 -35z m103 -197 c0 -12 -45 -9 -58 4 -7 7 -12 24 -12 39
l0 27 35 -31 c19 -17 35 -34 35 -39z"/>
<path d="M1290 1861 c0 -6 4 -13 10 -16 6 -3 7 1 4 9 -7 18 -14 21 -14 7z"/>
<path d="M5090 1801 c0 -6 4 -13 10 -16 6 -3 7 1 4 9 -7 18 -14 21 -14 7z"/>
<path d="M3800 1790 c8 -5 20 -10 25 -10 6 0 3 5 -5 10 -8 5 -19 10 -25 10 -5
0 -3 -5 5 -10z"/>
<path d="M5095 1763 c3 -3 0 -11 -5 -18 -7 -8 -5 -12 4 -12 14 0 16 22 3 32
-4 3 -5 2 -2 -2z"/>
<path d="M4885 1619 c-11 -12 -44 -35 -72 -51 -29 -17 -53 -34 -53 -39 0 -21
30 -67 54 -83 14 -9 40 -16 58 -16 29 1 37 7 64 54 22 38 28 59 22 70 -5 9 -4
23 4 35 15 24 5 37 -32 46 -19 4 -31 0 -45 -16z m53 -29 c-10 -16 -10 -24 -1
-39 10 -15 9 -22 -1 -30 -8 -7 -19 -25 -26 -41 -20 -49 -85 -38 -115 19 l-15
29 45 22 c25 12 50 31 56 41 6 12 20 19 39 19 28 0 29 -2 18 -20z"/>
<path d="M2835 1540 c-3 -6 1 -7 9 -4 18 7 21 14 7 14 -6 0 -13 -4 -16 -10z"/>
<path d="M4981 1531 c-21 -21 -35 -76 -29 -107 4 -23 38 -32 38 -10 0 21 10
20 26 -1 10 -14 15 -15 25 -6 10 10 10 18 1 38 -7 15 -8 25 -2 25 6 0 10 8 10
19 0 10 7 24 15 31 21 18 9 30 -31 30 -20 0 -42 -8 -53 -19z m49 -21 c0 -5 -4
-10 -10 -10 -5 0 -10 5 -10 10 0 6 5 10 10 10 6 0 10 -4 10 -10z m-15 -50 c7
-22 6 -23 -8 -11 -15 12 -18 10 -26 -10 l-10 -24 0 25 c-1 14 2 35 5 47 5 18
9 20 19 10 7 -7 16 -24 20 -37z"/>
<path d="M5185 1506 c-20 -14 -19 -15 8 -44 16 -16 45 -37 66 -46 22 -11 42
-29 50 -47 18 -42 50 -55 86 -36 26 13 31 12 72 -10 35 -20 46 -23 58 -13 22
18 19 31 -12 57 l-28 23 30 -6 c38 -7 65 13 69 49 4 34 -9 34 -57 2 l-37 -26
-51 35 c-67 47 -112 59 -154 42 -29 -12 -32 -12 -41 8 -11 26 -34 31 -59 12z
m45 -32 c0 -23 25 -27 58 -10 22 11 38 13 61 6 33 -9 121 -68 121 -81 0 -5 12
-19 27 -33 39 -36 22 -42 -31 -11 -43 25 -46 26 -70 10 -33 -22 -52 -14 -73
29 -11 24 -27 39 -49 46 -47 16 -89 51 -73 61 16 10 29 2 29 -17z m330 -59
c-7 -8 -20 -15 -29 -15 -13 1 -13 3 3 15 26 19 42 19 26 0z"/>
<path d="M5375 1399 c-4 -6 -5 -12 -2 -15 2 -3 7 2 10 11 7 17 1 20 -8 4z"/>
<path d="M1296 1293 c-6 -14 -5 -15 5 -6 7 7 10 15 7 18 -3 3 -9 -2 -12 -12z"/>
<path d="M5206 1299 c-16 -4 -40 -18 -53 -31 -16 -14 -34 -22 -50 -20 -41 6
-76 -16 -110 -67 -30 -46 -34 -49 -84 -53 -42 -4 -58 -11 -77 -34 -23 -26 -24
-33 -16 -88 10 -78 10 -152 0 -193 -7 -27 -5 -34 10 -40 34 -13 141 14 191 47
26 18 58 33 71 33 29 0 81 -50 133 -125 30 -43 49 -60 83 -73 l45 -17 -35 -33
c-39 -37 -43 -58 -13 -79 47 -32 104 27 82 84 -15 40 -8 56 26 63 22 5 32 16
45 49 10 24 36 69 58 101 50 73 71 137 57 175 -6 14 -34 51 -63 82 -53 55 -69
88 -81 168 -11 70 -52 67 -76 -6 -6 -20 -14 -40 -18 -45 -14 -14 -44 20 -50
58 -7 43 -30 56 -75 44z m58 -58 c4 -26 14 -44 31 -55 38 -25 53 -20 64 22 6
21 17 46 25 57 13 18 15 14 26 -40 16 -78 33 -109 91 -172 40 -42 49 -58 49
-88 0 -41 -19 -82 -62 -138 -17 -21 -38 -59 -48 -85 -13 -35 -24 -48 -41 -50
-13 -2 -29 -10 -36 -19 -10 -13 -17 -13 -49 -1 -27 10 -50 32 -91 90 -38 52
-69 84 -98 99 l-42 22 -34 -21 c-62 -40 -113 -61 -166 -68 -59 -7 -61 -5 -37
51 14 35 14 44 0 101 -21 81 -20 107 2 134 13 16 31 23 65 25 56 4 67 12 102
71 27 45 57 61 95 49 15 -5 30 2 56 24 21 19 46 31 63 31 25 0 29 -4 35 -39z
m102 -665 c-8 -33 -39 -51 -55 -32 -9 11 -6 21 15 45 30 36 51 29 40 -13z"/>
<path d="M5177 1212 c3 -7 9 -10 12 -5 3 4 10 11 15 15 4 4 -1 6 -12 5 -12 -1
-18 -6 -15 -15z"/>
<path d="M2145 1291 c-3 -5 -2 -12 3 -15 5 -3 9 1 9 9 0 17 -3 19 -12 6z"/>
<path d="M3621 1260 c-61 -48 -67 -59 -74 -136 -6 -52 -4 -64 13 -79 26 -24
56 -11 79 33 22 43 61 166 61 192 0 33 -29 30 -79 -10z m59 1 c0 -21 -63 -187
-76 -201 -12 -12 -16 -12 -29 1 -12 11 -13 22 -5 49 5 19 7 43 4 53 -4 14 7
31 41 63 47 43 65 53 65 35z"/>
<path d="M5575 1061 c-3 -5 -2 -12 3 -15 5 -3 9 1 9 9 0 17 -3 19 -12 6z"/>
<path d="M3661 1024 c0 -11 3 -14 6 -6 3 7 2 16 -1 19 -3 4 -6 -2 -5 -13z"/>
<path d="M5855 738 c-2 -7 -6 -35 -9 -63 -12 -102 -18 -124 -31 -119 -19 8
-64 -18 -123 -71 -64 -58 -78 -81 -61 -101 19 -24 68 -17 97 14 110 115 135
139 160 158 15 12 34 33 41 48 13 23 12 28 -6 49 -11 12 -24 39 -27 60 -7 36
-32 52 -41 25z m25 -42 c0 -13 9 -35 20 -48 l19 -25 -35 -39 -35 -39 7 40 c3
22 6 64 6 93 0 29 4 50 9 46 5 -3 9 -16 9 -28z m-60 -164 c0 -20 -127 -142
-147 -142 -38 0 -33 15 20 67 62 61 127 99 127 75z"/>
<path d="M5699 543 c-13 -16 -12 -17 4 -4 16 13 21 21 13 21 -2 0 -10 -8 -17
-17z"/>
<path d="M5883 505 c0 -8 4 -12 9 -9 5 3 6 10 3 15 -9 13 -12 11 -12 -6z"/>
<path d="M5806 413 c-6 -14 -5 -15 5 -6 7 7 10 15 7 18 -3 3 -9 -2 -12 -12z"/>
</g>
</svg>
